<?xml version="1.0" standalone="no"?>
<!DOCTYPE svg PUBLIC "-//W3C//DTD SVG 20010904//EN"
 "http://www.w3.org/TR/2001/REC-SVG-20010904/DTD/svg10.dtd">
<svg version="1.0" xmlns="http://www.w3.org/2000/svg"
 width="512.000000pt" height="512.000000pt" viewBox="0 0 512.000000 512.000000"
 preserveAspectRatio="xMidYMid meet">

<g transform="translate(0.000000,512.000000) scale(0.100000,-0.100000)"
fill="#000000" stroke="none">
<path d="M2423 5072 c-131 -47 -210 -158 -220 -313 -10 -136 26 -256 104 -355
l41 -50 -68 -12 c-220 -38 -375 -136 -410 -260 -13 -48 -14 -677 0 -702 14
-26 65 -42 96 -30 49 19 54 52 54 385 l0 305 35 39 c43 47 107 76 228 101 187
40 411 36 599 -10 97 -24 146 -49 186 -95 l32 -36 0 -305 c0 -332 5 -365 54
-384 31 -12 82 4 96 30 6 11 10 154 10 352 l0 334 -26 52 c-32 64 -100 126
-179 162 -58 27 -221 70 -263 70 -19 0 -15 8 27 64 59 78 91 165 98 272 12
174 -55 307 -185 371 -49 24 -71 28 -157 31 -77 2 -112 -2 -152 -16z m230
-156 c41 -17 81 -64 97 -112 18 -53 8 -168 -20 -231 -27 -64 -95 -129 -143
-138 -110 -21 -214 101 -225 261 -7 109 30 188 103 220 40 17 147 18 188 0z"/>
<path d="M2165 3915 l-25 -24 0 -249 0 -249 25 -23 c35 -33 81 -31 112 4 23
27 23 30 23 272 l0 245 -25 24 c-15 16 -36 25 -55 25 -19 0 -40 -9 -55 -25z"/>
<path d="M2845 3915 l-25 -24 0 -245 c0 -242 0 -245 23 -272 17 -20 33 -27 57
-27 24 0 40 7 57 27 23 27 23 30 23 272 l0 245 -25 24 c-15 16 -36 25 -55 25
-19 0 -40 -9 -55 -25z"/>
<path d="M1479 3813 c-340 -215 -591 -497 -763 -855 -71 -147 -126 -302 -126
-353 0 -24 7 -39 26 -54 64 -50 110 -14 154 118 92 281 245 528 455 738 105
104 259 225 360 283 66 38 89 76 73 122 -22 63 -80 64 -179 1z"/>
<path d="M3487 3848 c-9 -7 -20 -24 -26 -38 -16 -45 9 -82 85 -127 265 -158
511 -416 671 -703 47 -85 119 -256 148 -355 31 -102 55 -135 97 -135 73 0 96
48 68 144 -138 485 -467 920 -894 1183 -72 44 -118 54 -149 31z"/>
<path d="M2412 3077 c-12 -12 -31 -50 -43 -83 -22 -61 -22 -61 -78 -78 -31 -9
-85 -32 -121 -50 l-65 -33 -63 29 c-99 44 -105 42 -210 -66 -51 -51 -92 -101
-92 -110 0 -9 13 -49 30 -87 l30 -70 -27 -52 c-14 -29 -36 -81 -49 -117 -24
-69 -29 -73 -120 -111 -33 -13 -56 -29 -63 -45 -15 -34 -14 -232 2 -264 8 -17
34 -33 80 -51 37 -14 71 -30 76 -35 4 -5 13 -29 20 -54 8 -25 29 -75 47 -113
l35 -68 -32 -70 c-21 -50 -29 -79 -24 -98 3 -14 44 -63 90 -108 96 -96 110
-100 207 -56 l59 26 67 -32 c37 -17 92 -40 122 -50 53 -17 54 -19 82 -87 16
-38 36 -75 45 -81 23 -18 263 -18 286 -1 9 7 29 44 45 82 28 68 29 70 82 87
30 10 85 33 122 50 l67 32 59 -26 c97 -44 111 -40 207 56 46 45 87 94 90 108
5 19 -3 48 -24 97 l-31 70 40 85 c22 47 43 99 46 116 8 38 14 42 92 71 83 30
92 48 92 184 0 58 -5 116 -11 130 -8 17 -32 34 -78 52 -83 35 -87 38 -95 75
-3 17 -24 69 -45 115 l-40 84 30 70 c16 38 29 77 29 86 0 9 -41 59 -92 110
-105 108 -111 110 -210 66 l-63 -29 -65 33 c-36 18 -90 41 -121 50 -56 17 -56
17 -78 79 -36 100 -45 105 -192 105 -118 0 -127 -1 -147 -23z m215 -205 c28
-69 43 -81 128 -101 28 -6 96 -35 152 -63 l102 -51 63 26 c77 33 79 33 108 2
l23 -24 -27 -59 c-14 -33 -26 -69 -26 -80 0 -11 20 -57 44 -103 25 -46 54
-118 65 -159 12 -41 27 -80 33 -86 7 -7 40 -23 73 -36 58 -23 60 -25 63 -65
l3 -40 -61 -22 c-62 -23 -100 -53 -100 -80 0 -31 -58 -180 -88 -230 -39 -62
-39 -75 -6 -153 l25 -61 -27 -28 -26 -28 -55 25 c-31 13 -67 24 -81 24 -14 0
-71 -22 -126 -49 -56 -27 -124 -55 -153 -61 -69 -15 -79 -25 -106 -95 l-23
-60 -44 0 -44 0 -23 60 c-27 70 -37 80 -106 95 -29 6 -97 34 -153 61 -55 27
-112 49 -126 49 -14 0 -50 -11 -81 -24 l-55 -25 -26 28 -27 28 25 61 c14 34
26 70 26 81 0 11 -16 46 -35 77 -19 32 -48 102 -66 156 -17 55 -38 105 -45
113 -8 8 -42 24 -75 36 l-60 22 3 40 c3 40 5 42 63 65 33 13 66 29 73 36 6 6
21 45 33 86 11 41 40 113 65 159 24 46 44 92 44 103 0 11 -12 47 -26 80 l-27
59 23 24 c29 31 31 31 108 -2 l63 -26 102 51 c56 28 125 57 152 63 95 23 100
27 146 147 8 20 15 23 50 20 40 -3 42 -4 66 -66z"/>
<path d="M2442 2625 c-325 -74 -517 -407 -417 -722 48 -151 144 -261 290 -334
369 -183 805 88 805 499 0 203 -92 373 -261 482 -117 75 -284 106 -417 75z
m213 -160 c123 -33 215 -108 272 -223 26 -52 28 -67 28 -167 0 -105 -2 -114
-33 -177 -57 -117 -168 -199 -299 -221 -171 -30 -347 62 -425 221 -31 63 -33
72 -33 177 0 101 2 115 29 170 34 69 114 153 174 184 96 49 190 61 287 36z"/>
<path d="M585 2176 c-22 -7 -54 -20 -71 -29 -42 -22 -112 -100 -134 -150 -65
-147 -38 -346 64 -484 l43 -58 -106 -23 c-200 -44 -330 -134 -366 -254 -19
-65 -22 -651 -4 -692 26 -55 112 -55 138 0 7 17 11 125 11 333 0 303 0 309 23
341 48 72 186 120 402 141 203 21 467 -18 575 -84 90 -55 90 -53 90 -412 1
-326 1 -329 47 -353 34 -18 52 -14 84 17 l29 29 0 314 c0 370 -3 387 -81 473
-74 80 -192 132 -366 160 -24 4 -43 10 -43 14 0 4 12 18 26 32 97 90 144 310
100 463 -29 99 -120 192 -218 221 -62 18 -187 19 -243 1z m225 -168 c143 -73
115 -379 -42 -459 -109 -55 -228 41 -257 207 -30 169 44 274 194 274 43 0 74
-7 105 -22z"/>
<path d="M4282 2172 c-97 -35 -180 -122 -208 -220 -10 -33 -16 -90 -16 -139 1
-129 38 -235 109 -314 20 -22 34 -41 32 -42 -2 -2 -51 -13 -109 -26 -143 -31
-234 -76 -299 -146 -78 -86 -81 -103 -81 -473 l0 -314 29 -29 c16 -16 36 -29
45 -29 26 0 63 21 75 44 7 14 12 131 13 336 3 367 0 356 111 409 209 101 667
101 866 -1 110 -56 105 -39 111 -411 3 -177 9 -329 13 -339 5 -9 22 -22 38
-28 37 -16 82 1 98 36 7 17 11 125 11 333 0 361 -3 380 -80 464 -76 83 -192
134 -367 162 l-42 7 44 59 c84 114 119 265 91 398 -18 86 -49 144 -107 195
-66 60 -119 79 -229 83 -74 3 -107 -1 -148 -15z m238 -164 c78 -40 111 -134
89 -253 -20 -111 -89 -205 -162 -221 -118 -26 -228 110 -230 282 -1 141 67
214 198 214 43 0 74 -7 105 -22z"/>
<path d="M313 1016 l-28 -24 0 -252 0 -252 29 -25 c23 -19 36 -24 60 -19 64
12 66 21 66 301 l0 254 -26 20 c-35 28 -67 26 -101 -3z"/>
<path d="M996 1019 l-26 -20 0 -258 c0 -247 1 -259 20 -276 29 -26 85 -25 113
3 22 22 22 27 22 273 l0 251 -28 24 c-34 29 -66 31 -101 3z"/>
<path d="M4023 1016 l-28 -24 0 -251 c0 -246 0 -251 22 -273 31 -31 89 -30
114 1 17 21 19 44 19 276 l0 254 -26 20 c-35 28 -67 26 -101 -3z"/>
<path d="M4706 1019 l-26 -20 0 -254 c0 -280 2 -289 66 -301 24 -5 37 0 60 19
l29 25 0 252 0 252 -28 24 c-34 29 -66 31 -101 3z"/>
<path d="M1675 345 c-28 -28 -32 -70 -10 -102 31 -44 319 -144 533 -185 101
-20 150 -23 362 -23 191 1 266 4 340 18 205 38 455 120 499 162 34 34 33 81
-4 112 -34 30 -40 29 -209 -31 -198 -71 -335 -97 -558 -103 -310 -9 -527 29
-805 143 -98 41 -116 42 -148 9z"/>
</g>
</svg>
